<?xml version="1.0" encoding="UTF-8"?>
<!DOCTYPE svg PUBLIC "-//W3C//DTD SVG 1.1//EN" "http://www.w3.org/Graphics/SVG/1.1/DTD/svg11.dtd">
<!-- Creator: CorelDRAW 2020 (64-Bit) -->
<svg xmlns="http://www.w3.org/2000/svg" xml:space="preserve" width="4.064mm" height="4.064mm" version="1.1" style="shape-rendering:geometricPrecision; text-rendering:geometricPrecision; image-rendering:optimizeQuality; fill-rule:evenodd; clip-rule:evenodd"
viewBox="0 0 406.4 406.4"
 xmlns:xlink="http://www.w3.org/1999/xlink"
 xmlns:xodm="http://www.corel.com/coreldraw/odm/2003">
 <defs>
  <style type="text/css">
   <![CDATA[
    .fil1 {fill:#015555}
    .fil2 {fill:#54A7A7}
    .fil0 {fill:#56A9A9}
   ]]>
  </style>
 </defs>
 <g id="Слой_x0020_1">
  <metadata id="CorelCorpID_0Corel-Layer"/>
  <g id="_1363673094592">
   <path class="fil0" d="M74.7 345.94c46.14,0.21 89.89,3.15 133.51,13.28 37.79,8.77 65.63,27.9 103.03,26.67l-2.7 -203.63 -233.84 163.68z"/>
   <path class="fil1" d="M256.28 129.44l-124.33 -3.07 -0.41 136.24c34.85,-10.87 61.48,-33.81 87.67,-51.82 30.33,-20.87 57.49,-35.34 69.87,-66.84l-32.8 -14.51z"/>
   <path class="fil2" d="M131.95 126.37l124.33 3.07 -0.36 -99.25 -18.23 -6.25c-4.23,24.75 9.09,13.85 -25.52,35.45 -12,7.49 -22.39,12.14 -40.17,20.1l6.81 -63.73 -12.22 26.64c-2.11,11.3 -0.45,30.37 -0.11,42.28 -18.13,21.97 -19.6,13.41 -34.53,41.69z"/>
   <path class="fil1" d="M237.69 23.94l-58.88 -8.18 -6.81 63.73c17.78,-7.96 28.17,-12.61 40.17,-20.1 34.61,-21.6 21.29,-10.7 25.52,-35.45z"/>
  </g>
 </g>
</svg>
